<?xml version="1.0" standalone="no"?>
<!DOCTYPE svg PUBLIC "-//W3C//DTD SVG 20010904//EN"
 "http://www.w3.org/TR/2001/REC-SVG-20010904/DTD/svg10.dtd">
<svg version="1.0" xmlns="http://www.w3.org/2000/svg"
 width="854.000000pt" height="980.000000pt" viewBox="0 0 854.000000 980.000000"
 preserveAspectRatio="xMidYMid meet">
<metadata>
Created by potrace 1.16, written by Peter Selinger 2001-2019
</metadata>
<g transform="translate(0.000000,980.000000) scale(0.100000,-0.100000)"
fill="#000000" stroke="none">
<path d="M2130 8581 c-1869 -1087 -2097 -1222 -2112 -1252 -15 -32 -16 -203
-7 -2449 9 -2240 11 -2417 27 -2444 23 -39 4201 -2435 4247 -2436 22 0 277
144 960 541 512 298 1452 845 2090 1216 638 371 1168 685 1178 696 18 21 18
108 13 2450 -5 2142 -8 2431 -21 2457 -18 35 49 -5 -1035 615 -459 263 -1364
781 -2011 1151 -808 463 -1186 674 -1206 674 -20 0 -663 -369 -2123 -1219z
m2340 -315 c75 -31 2678 -1570 2713 -1604 16 -15 47 -61 70 -102 l42 -75 0
-1580 0 -1580 -35 -70 c-19 -38 -53 -88 -75 -110 -39 -38 -2560 -1575 -2711
-1653 -83 -42 -138 -50 -205 -28 -28 10 -315 145 -638 301 -441 213 -590 290
-600 308 -14 24 -10 36 86 230 63 127 109 210 122 217 26 13 -17 33 576 -255
332 -162 480 -229 505 -229 38 0 21 -10 950 554 283 172 730 443 994 603 417
253 480 295 492 323 12 28 14 261 14 1386 0 1281 -1 1355 -18 1387 -15 28
-139 104 -822 508 -443 261 -976 576 -1184 699 -233 138 -389 224 -405 224
-30 0 -6 14 -1411 -798 -833 -481 -1039 -604 -1057 -631 l-23 -34 0 -1376 c0
-911 4 -1389 10 -1413 13 -44 71 -99 240 -227 144 -108 248 -173 348 -217 95
-41 178 -45 275 -13 132 44 288 159 307 227 6 25 10 547 10 1543 0 1157 3
1508 12 1517 9 9 78 12 250 12 l238 0 15 -24 c14 -21 15 -192 13 -1622 l-3
-1599 -22 -48 c-13 -27 -52 -83 -87 -125 -119 -141 -255 -247 -421 -328 -406
-199 -840 -125 -1259 215 -145 117 -378 366 -420 449 -9 18 -21 70 -26 115
-13 109 -13 3033 0 3109 11 70 76 185 127 224 51 39 2710 1574 2763 1595 67
27 180 25 250 -5z m879 -2057 c63 -10 161 -35 219 -54 255 -86 411 -208 491
-387 34 -75 101 -279 101 -308 0 -35 -41 -47 -239 -74 -171 -23 -197 -24 -216
-12 -13 8 -36 50 -55 96 -101 251 -243 343 -551 357 -194 9 -365 -19 -480 -78
-51 -26 -132 -107 -160 -160 -19 -36 -24 -60 -24 -129 0 -100 17 -142 81 -207
80 -80 90 -83 798 -283 285 -81 459 -140 576 -197 80 -40 109 -61 185 -137
138 -139 191 -260 202 -458 22 -411 -220 -745 -650 -897 -178 -63 -266 -75
-527 -75 -323 0 -497 32 -695 129 -115 57 -188 115 -254 201 -57 76 -191 340
-242 476 -45 122 -51 117 206 158 178 29 207 31 225 19 12 -8 37 -55 59 -109
64 -162 102 -230 166 -296 66 -68 164 -121 273 -149 149 -38 400 -38 547 0
212 55 360 199 385 375 21 151 -41 270 -177 339 -78 39 -194 75 -548 169 -584
157 -759 231 -901 385 -71 77 -117 152 -149 244 -82 236 -45 495 99 698 55 76
164 178 241 224 117 71 351 143 518 160 126 13 358 4 496 -20z"/>
</g>
</svg>
