<?xml version="1.0" standalone="no"?>
<!DOCTYPE svg PUBLIC "-//W3C//DTD SVG 20010904//EN"
 "http://www.w3.org/TR/2001/REC-SVG-20010904/DTD/svg10.dtd">
<svg version="1.0" xmlns="http://www.w3.org/2000/svg"
 width="806.000000pt" height="980.000000pt" viewBox="0 0 806.000000 980.000000"
 preserveAspectRatio="xMidYMid meet">

<g transform="translate(0.000000,980.000000) scale(0.100000,-0.100000)"
fill="#000000" stroke="none">
<path d="M1010 9789 c-150 -6 -186 -10 -253 -33 -352 -118 -617 -400 -720
-764 l-21 -77 -3 -3655 c-2 -2010 0 -3837 5 -4060 l8 -405 49 -109 c86 -193
191 -334 336 -450 88 -70 264 -166 349 -190 141 -40 209 -41 2232 -40 l1947 1
83 33 c387 154 614 389 726 750 l26 85 4 590 3 590 -678 -2 c-373 -2 -1534 -4
-2581 -5 l-1902 -3 0 3278 0 3277 2280 0 2280 0 0 -240 0 -240 305 0 305 0 0
203 c-1 334 -16 600 -40 687 -27 98 -105 259 -162 335 -148 200 -299 312 -558
415 l-100 40 -1873 -2 c-1029 -1 -1951 -5 -2047 -9z m1992 -8290 c79 -17 166
-67 233 -135 196 -198 191 -505 -11 -693 -96 -91 -195 -130 -324 -131 -239 -1
-431 160 -486 407 -15 71 -16 82 -1 149 9 40 28 98 44 130 34 69 148 195 212
232 80 47 221 64 333 41z"/>
<path d="M1140 7525 l0 -425 678 2 677 3 0 420 0 420 -677 3 -678 2 0 -425z"/>
<path d="M5180 7270 l0 -349 -57 -16 c-222 -61 -397 -130 -545 -216 l-90 -52
-244 244 -244 244 -250 -250 c-138 -137 -250 -254 -250 -260 0 -6 102 -111
226 -235 124 -124 230 -233 235 -243 8 -13 -4 -44 -55 -140 -94 -180 -163
-360 -200 -529 l-6 -28 -345 0 -345 0 0 -355 0 -355 343 0 343 0 41 -142 c48
-165 121 -343 191 -462 l50 -84 -241 -247 -240 -247 251 -251 252 -252 243
243 243 243 78 -47 c99 -60 292 -143 426 -184 58 -18 123 -38 145 -44 l40 -13
3 -346 2 -347 355 0 355 0 0 348 0 349 103 28 c177 48 382 134 523 219 l59 36
240 -240 c132 -132 245 -240 250 -240 6 0 120 110 255 245 l245 245 -245 245
c-218 218 -244 247 -233 264 88 142 204 411 249 578 l27 103 344 0 343 0 0
355 0 355 -344 0 -344 0 -12 53 c-42 178 -156 453 -240 577 l-42 62 246 247
246 246 -248 248 -247 247 -241 -241 -241 -241 -133 67 c-181 91 -335 154
-455 185 l-100 27 -6 99 c-4 54 -7 210 -8 345 l-1 246 -127 6 c-71 4 -228 7
-350 7 l-223 0 0 -350z m517 -1435 c325 -75 564 -356 598 -701 13 -130 -31
-313 -106 -441 -19 -32 -77 -101 -129 -153 -73 -74 -113 -105 -175 -137 -293
-151 -630 -108 -873 112 -99 89 -191 244 -229 385 -27 99 -24 282 5 385 85
295 325 509 636 565 63 11 190 4 273 -15z"/>
<path d="M1142 5391 c2 -225 6 -412 9 -415 3 -3 308 -9 677 -13 l672 -6 0 421
0 422 -681 0 -680 0 3 -409z"/>
<path d="M1140 3150 l0 -410 680 0 680 0 0 410 0 410 -680 0 -680 0 0 -410z"/>
</g>
</svg>
