<?xml version="1.0" encoding="iso-8859-1"?>
<!-- Generator: Adobe Illustrator 16.0.0, SVG Export Plug-In . SVG Version: 6.00 Build 0)  -->
<!DOCTYPE svg PUBLIC "-//W3C//DTD SVG 1.1//EN" "http://www.w3.org/Graphics/SVG/1.1/DTD/svg11.dtd">
<svg version="1.1" id="Capa_1" xmlns="http://www.w3.org/2000/svg" xmlns:xlink="http://www.w3.org/1999/xlink" x="0px" y="0px"
	 width="439.875px" height="439.875px" viewBox="0 0 439.875 439.875" style="enable-background:new 0 0 439.875 439.875;"
	 xml:space="preserve">
<g>
	<g>
		<path d="M210.375,191.25c0-21.038-17.212-38.25-38.25-38.25H114.75v38.25v95.625h19.125V229.5h15.3l38.25,57.375h22.95
			l-38.25-57.375C193.163,229.5,210.375,212.287,210.375,191.25z M172.125,210.375h-38.25v-38.25h38.25
			c11.475,0,19.125,7.65,19.125,19.125S183.6,210.375,172.125,210.375z"/>
		<path d="M382.5,95.625H57.375C24.862,95.625,0,120.487,0,153v133.875c0,32.513,24.862,57.375,57.375,57.375H382.5
			c32.513,0,57.375-24.862,57.375-57.375V153C439.875,120.487,415.013,95.625,382.5,95.625z M420.75,286.875
			c0,21.037-17.213,38.25-38.25,38.25H57.375c-21.038,0-38.25-17.213-38.25-38.25V153c0-21.038,17.212-38.25,38.25-38.25H382.5
			c21.037,0,38.25,17.212,38.25,38.25V286.875z"/>
		<path d="M286.875,153H229.5v72.675v61.2h57.375c21.037,0,38.25-17.213,38.25-38.25c0-11.475-5.737-21.037-13.388-28.688
			c7.65-7.65,13.388-17.212,13.388-28.688C325.125,170.212,307.912,153,286.875,153z M286.875,267.75h-38.25V229.5h38.25
			c11.475,0,19.125,7.65,19.125,19.125S298.35,267.75,286.875,267.75z M286.875,210.375h-38.25v-38.25h38.25
			c11.475,0,19.125,7.65,19.125,19.125S298.35,210.375,286.875,210.375z"/>
	</g>
</g>
<g>
</g>
<g>
</g>
<g>
</g>
<g>
</g>
<g>
</g>
<g>
</g>
<g>
</g>
<g>
</g>
<g>
</g>
<g>
</g>
<g>
</g>
<g>
</g>
<g>
</g>
<g>
</g>
<g>
</g>
</svg>
